<svg width="358" height="40" viewBox="0 0 358 40" fill="none" xmlns="http://www.w3.org/2000/svg">
<path d="M15.9446 5.02848C18.0246 5.02848 19.8646 5.33248 21.4646 5.94048C23.0966 6.54848 24.6326 7.46048 26.0726 8.67648L22.3286 13.1405C21.3366 12.3725 20.3606 11.7965 19.4006 11.4125C18.4406 11.0285 17.4166 10.8365 16.3286 10.8365C14.0886 10.8365 12.3126 11.7805 11.0006 13.6685C9.72059 15.5565 9.08059 18.4685 9.08059 22.4045C9.08059 26.2765 9.72059 29.1565 11.0006 31.0445C12.3126 32.9005 14.1206 33.8285 16.4246 33.8285C17.6406 33.8285 18.7446 33.6045 19.7366 33.1565C20.7286 32.6765 21.8006 32.0045 22.9526 31.1405L26.4566 35.6525C25.2086 36.9005 23.6886 37.9245 21.8966 38.7245C20.1366 39.5245 18.1846 39.9245 16.0406 39.9245C12.9686 39.9245 10.2966 39.2525 8.02459 37.9085C5.75259 36.5645 3.97659 34.5805 2.69659 31.9565C1.44859 29.3005 0.824585 26.1165 0.824585 22.4045C0.824585 18.7885 1.46459 15.6685 2.74459 13.0445C4.05659 10.4205 5.84859 8.43648 8.12058 7.09248C10.4246 5.71648 13.0326 5.02848 15.9446 5.02848Z" fill="#141414"/>
<path d="M49.6132 31.7165C49.6132 32.6765 49.7412 33.3805 49.9972 33.8285C50.2852 34.2765 50.7332 34.6125 51.3412 34.8365L49.7572 39.7805C48.1892 39.6525 46.9092 39.3165 45.9172 38.7725C44.9252 38.1965 44.1572 37.3005 43.6132 36.0845C41.9492 38.6445 39.3892 39.9245 35.9332 39.9245C33.4052 39.9245 31.3892 39.1885 29.8852 37.7165C28.3812 36.2445 27.6292 34.3245 27.6292 31.9565C27.6292 29.1725 28.6532 27.0445 30.7012 25.5725C32.7492 24.1005 35.7092 23.3645 39.5812 23.3645H42.1732V22.2605C42.1732 20.7565 41.8532 19.7325 41.2132 19.1885C40.5732 18.6125 39.4532 18.3245 37.8532 18.3245C37.0212 18.3245 36.0132 18.4525 34.8292 18.7085C33.6452 18.9325 32.4292 19.2525 31.1812 19.6685L29.4532 14.6765C31.0532 14.0685 32.6852 13.6045 34.3492 13.2845C36.0452 12.9645 37.6132 12.8045 39.0532 12.8045C42.7012 12.8045 45.3732 13.5565 47.0692 15.0605C48.7652 16.5645 49.6132 18.8205 49.6132 21.8285V31.7165ZM38.1412 34.5005C39.8692 34.5005 41.2132 33.6845 42.1732 32.0525V27.5405H40.3012C38.5732 27.5405 37.2772 27.8445 36.4132 28.4525C35.5812 29.0605 35.1652 30.0045 35.1652 31.2845C35.1652 32.3085 35.4212 33.1085 35.9332 33.6845C36.4772 34.2285 37.2132 34.5005 38.1412 34.5005Z" fill="#141414"/>
<path d="M69.4781 12.9005C70.4061 12.9005 71.2541 13.0125 72.0221 13.2365L70.8221 20.5805C69.8621 20.3565 69.0941 20.2445 68.5181 20.2445C67.0141 20.2445 65.8621 20.7725 65.0621 21.8285C64.2941 22.8525 63.6861 24.4045 63.2381 26.4845V39.1085H55.6541V13.6205H62.2781L62.9021 18.5645C63.4781 16.8045 64.3421 15.4285 65.4941 14.4365C66.6781 13.4125 68.0061 12.9005 69.4781 12.9005Z" fill="#141414"/>
<path d="M81.6877 39.9245C79.4797 39.9245 77.7517 39.3005 76.5037 38.0525C75.2877 36.7725 74.6797 34.9645 74.6797 32.6285V3.49248L82.2637 2.67648V32.3405C82.2637 33.3965 82.6957 33.9245 83.5597 33.9245C84.0077 33.9245 84.4237 33.8445 84.8077 33.6845L86.2957 39.0605C84.9197 39.6365 83.3837 39.9245 81.6877 39.9245Z" fill="#141414"/>
<path d="M99.9753 12.8045C103.879 12.8045 106.935 14.0045 109.143 16.4045C111.351 18.7725 112.455 22.1005 112.455 26.3885C112.455 29.1085 111.943 31.4925 110.919 33.5405C109.927 35.5565 108.487 37.1245 106.599 38.2445C104.743 39.3645 102.535 39.9245 99.9753 39.9245C96.1033 39.9245 93.0473 38.7405 90.8073 36.3725C88.5993 33.9725 87.4953 30.6285 87.4953 26.3405C87.4953 23.6205 87.9913 21.2525 88.9833 19.2365C90.0073 17.1885 91.4473 15.6045 93.3033 14.4845C95.1913 13.3645 97.4153 12.8045 99.9753 12.8045ZM99.9753 18.3725C98.4393 18.3725 97.2873 19.0285 96.5193 20.3405C95.7513 21.6205 95.3673 23.6205 95.3673 26.3405C95.3673 29.1245 95.7353 31.1565 96.4713 32.4365C97.2393 33.7165 98.4073 34.3565 99.9753 34.3565C101.511 34.3565 102.663 33.7165 103.431 32.4365C104.199 31.1245 104.583 29.1085 104.583 26.3885C104.583 23.6045 104.199 21.5725 103.431 20.2925C102.695 19.0125 101.543 18.3725 99.9753 18.3725Z" fill="#141414"/>
<path d="M125.943 12.8045C127.767 12.8045 129.479 13.0765 131.079 13.6205C132.679 14.1645 134.087 14.9325 135.303 15.9245L132.519 20.1965C130.439 18.8845 128.343 18.2285 126.231 18.2285C125.239 18.2285 124.471 18.4045 123.927 18.7565C123.415 19.0765 123.159 19.5405 123.159 20.1485C123.159 20.6285 123.271 21.0285 123.495 21.3485C123.751 21.6365 124.247 21.9405 124.983 22.2605C125.719 22.5805 126.855 22.9645 128.391 23.4125C131.047 24.1805 133.015 25.1885 134.295 26.4365C135.607 27.6525 136.263 29.3485 136.263 31.5245C136.263 33.2525 135.767 34.7565 134.775 36.0365C133.783 37.2845 132.423 38.2445 130.695 38.9165C128.967 39.5885 127.047 39.9245 124.935 39.9245C122.791 39.9245 120.791 39.5885 118.935 38.9165C117.111 38.2445 115.559 37.3165 114.279 36.1325L117.975 32.0045C120.119 33.6685 122.375 34.5005 124.743 34.5005C125.895 34.5005 126.791 34.2925 127.431 33.8765C128.103 33.4605 128.439 32.8685 128.439 32.1005C128.439 31.4925 128.311 31.0125 128.055 30.6605C127.799 30.3085 127.303 29.9885 126.567 29.7005C125.831 29.3805 124.663 28.9965 123.063 28.5485C120.535 27.8125 118.647 26.7885 117.399 25.4765C116.151 24.1645 115.527 22.5325 115.527 20.5805C115.527 19.1085 115.943 17.7965 116.775 16.6445C117.639 15.4605 118.855 14.5325 120.423 13.8605C122.023 13.1565 123.863 12.8045 125.943 12.8045Z" fill="#141414"/>
<path d="M174.408 3.49248V39.1085H167.688L167.304 36.1325C165.512 38.6605 163.096 39.9245 160.056 39.9245C156.888 39.9245 154.472 38.7085 152.808 36.2765C151.176 33.8445 150.36 30.5165 150.36 26.2925C150.36 23.7005 150.792 21.3805 151.656 19.3325C152.52 17.2845 153.736 15.6845 155.304 14.5325C156.904 13.3805 158.728 12.8045 160.776 12.8045C163.208 12.8045 165.224 13.6045 166.824 15.2045V2.67648L174.408 3.49248ZM162.408 34.3565C164.168 34.3565 165.64 33.3965 166.824 31.4765V20.4845C166.216 19.7485 165.592 19.2045 164.952 18.8525C164.344 18.5005 163.64 18.3245 162.84 18.3245C161.432 18.3245 160.312 18.9805 159.48 20.2925C158.648 21.6045 158.232 23.6205 158.232 26.3405C158.232 29.3165 158.584 31.3965 159.288 32.5805C160.024 33.7645 161.064 34.3565 162.408 34.3565Z" fill="#141414"/>
<path d="M200.598 31.7165C200.598 32.6765 200.726 33.3805 200.982 33.8285C201.27 34.2765 201.718 34.6125 202.326 34.8365L200.742 39.7805C199.174 39.6525 197.894 39.3165 196.902 38.7725C195.91 38.1965 195.142 37.3005 194.598 36.0845C192.934 38.6445 190.374 39.9245 186.918 39.9245C184.39 39.9245 182.374 39.1885 180.87 37.7165C179.366 36.2445 178.614 34.3245 178.614 31.9565C178.614 29.1725 179.638 27.0445 181.686 25.5725C183.734 24.1005 186.694 23.3645 190.566 23.3645H193.158V22.2605C193.158 20.7565 192.838 19.7325 192.198 19.1885C191.558 18.6125 190.438 18.3245 188.838 18.3245C188.006 18.3245 186.998 18.4525 185.814 18.7085C184.63 18.9325 183.414 19.2525 182.166 19.6685L180.438 14.6765C182.038 14.0685 183.67 13.6045 185.334 13.2845C187.03 12.9645 188.598 12.8045 190.038 12.8045C193.686 12.8045 196.358 13.5565 198.054 15.0605C199.75 16.5645 200.598 18.8205 200.598 21.8285V31.7165ZM189.126 34.5005C190.854 34.5005 192.198 33.6845 193.158 32.0525V27.5405H191.286C189.558 27.5405 188.262 27.8445 187.398 28.4525C186.566 29.0605 186.15 30.0045 186.15 31.2845C186.15 32.3085 186.406 33.1085 186.918 33.6845C187.462 34.2285 188.198 34.5005 189.126 34.5005Z" fill="#141414"/>
<path d="M228.925 5.84448C233.309 5.84448 236.717 6.75648 239.149 8.58048C241.581 10.4045 242.797 13.1085 242.797 16.6925C242.797 20.4365 241.597 23.2685 239.197 25.1885C236.829 27.0765 233.645 28.0205 229.645 28.0205H226.045V39.1085H218.173V5.84448H228.925ZM228.973 22.3565C230.829 22.3565 232.237 21.9245 233.197 21.0605C234.189 20.1645 234.685 18.7085 234.685 16.6925C234.685 13.2045 232.733 11.4605 228.829 11.4605H226.045V22.3565H228.973Z" fill="#141414"/>
<path d="M264.582 31.7165C264.582 32.6765 264.71 33.3805 264.966 33.8285C265.254 34.2765 265.702 34.6125 266.31 34.8365L264.726 39.7805C263.158 39.6525 261.878 39.3165 260.886 38.7725C259.894 38.1965 259.126 37.3005 258.582 36.0845C256.918 38.6445 254.358 39.9245 250.902 39.9245C248.374 39.9245 246.358 39.1885 244.854 37.7165C243.35 36.2445 242.598 34.3245 242.598 31.9565C242.598 29.1725 243.622 27.0445 245.67 25.5725C247.718 24.1005 250.678 23.3645 254.55 23.3645H257.142V22.2605C257.142 20.7565 256.822 19.7325 256.182 19.1885C255.542 18.6125 254.422 18.3245 252.822 18.3245C251.99 18.3245 250.982 18.4525 249.798 18.7085C248.614 18.9325 247.398 19.2525 246.15 19.6685L244.422 14.6765C246.022 14.0685 247.654 13.6045 249.318 13.2845C251.014 12.9645 252.582 12.8045 254.022 12.8045C257.67 12.8045 260.342 13.5565 262.038 15.0605C263.734 16.5645 264.582 18.8205 264.582 21.8285V31.7165ZM253.11 34.5005C254.838 34.5005 256.182 33.6845 257.142 32.0525V27.5405H255.27C253.542 27.5405 252.246 27.8445 251.382 28.4525C250.55 29.0605 250.134 30.0045 250.134 31.2845C250.134 32.3085 250.39 33.1085 250.902 33.6845C251.446 34.2285 252.182 34.5005 253.11 34.5005Z" fill="#141414"/>
<path d="M278.207 13.6205V39.1085H270.623V13.6205H278.207ZM274.367 0.180481C275.679 0.180481 276.751 0.596481 277.583 1.42848C278.447 2.22848 278.879 3.25248 278.879 4.50048C278.879 5.74848 278.447 6.78848 277.583 7.62048C276.751 8.42048 275.679 8.82048 274.367 8.82048C273.055 8.82048 271.983 8.42048 271.151 7.62048C270.319 6.78848 269.903 5.74848 269.903 4.50048C269.903 3.25248 270.319 2.22848 271.151 1.42848C271.983 0.596481 273.055 0.180481 274.367 0.180481Z" fill="#141414"/>
<path d="M298.042 25.4765L306.25 39.1085H297.658L293.242 29.5565L288.922 39.1085H280.666L288.874 25.7165L281.482 13.6205H289.978L293.53 21.7805L296.938 13.6205H305.002L298.042 25.4765Z" fill="#141414"/>
<path d="M328.285 31.7165C328.285 32.6765 328.413 33.3805 328.669 33.8285C328.957 34.2765 329.405 34.6125 330.013 34.8365L328.429 39.7805C326.861 39.6525 325.581 39.3165 324.589 38.7725C323.597 38.1965 322.829 37.3005 322.285 36.0845C320.621 38.6445 318.061 39.9245 314.605 39.9245C312.077 39.9245 310.061 39.1885 308.557 37.7165C307.053 36.2445 306.301 34.3245 306.301 31.9565C306.301 29.1725 307.325 27.0445 309.373 25.5725C311.421 24.1005 314.381 23.3645 318.253 23.3645H320.845V22.2605C320.845 20.7565 320.525 19.7325 319.885 19.1885C319.245 18.6125 318.125 18.3245 316.525 18.3245C315.693 18.3245 314.685 18.4525 313.501 18.7085C312.317 18.9325 311.101 19.2525 309.853 19.6685L308.125 14.6765C309.725 14.0685 311.357 13.6045 313.021 13.2845C314.717 12.9645 316.285 12.8045 317.725 12.8045C321.373 12.8045 324.045 13.5565 325.741 15.0605C327.437 16.5645 328.285 18.8205 328.285 21.8285V31.7165ZM316.813 34.5005C318.541 34.5005 319.885 33.6845 320.845 32.0525V27.5405H318.973C317.245 27.5405 315.949 27.8445 315.085 28.4525C314.253 29.0605 313.837 30.0045 313.837 31.2845C313.837 32.3085 314.093 33.1085 314.605 33.6845C315.149 34.2285 315.885 34.5005 316.813 34.5005ZM320.845 8.62848C320.141 8.62848 319.533 8.51648 319.021 8.29248C318.509 8.06848 317.949 7.74848 317.341 7.33248C316.541 6.75648 315.885 6.46848 315.373 6.46848C314.829 6.46848 314.365 6.64448 313.981 6.99648C313.629 7.31648 313.245 7.84448 312.829 8.58048L309.037 6.75648C309.677 5.09248 310.525 3.73248 311.581 2.67648C312.669 1.62048 313.885 1.09248 315.229 1.09248C315.965 1.09248 316.589 1.22048 317.101 1.47648C317.645 1.70048 318.237 2.02048 318.877 2.43648C319.325 2.72448 319.677 2.93248 319.933 3.06048C320.221 3.18848 320.509 3.25248 320.797 3.25248C321.309 3.25248 321.741 3.09248 322.093 2.77248C322.477 2.42048 322.877 1.87648 323.293 1.14048L327.085 3.01248C326.413 4.70848 325.533 6.06848 324.445 7.09248C323.389 8.11648 322.189 8.62848 320.845 8.62848Z" fill="#141414"/>
<path d="M345.366 12.8045C349.27 12.8045 352.326 14.0045 354.534 16.4045C356.742 18.7725 357.846 22.1005 357.846 26.3885C357.846 29.1085 357.334 31.4925 356.31 33.5405C355.318 35.5565 353.878 37.1245 351.99 38.2445C350.134 39.3645 347.926 39.9245 345.366 39.9245C341.494 39.9245 338.438 38.7405 336.198 36.3725C333.99 33.9725 332.886 30.6285 332.886 26.3405C332.886 23.6205 333.382 21.2525 334.374 19.2365C335.398 17.1885 336.838 15.6045 338.694 14.4845C340.582 13.3645 342.806 12.8045 345.366 12.8045ZM345.366 18.3725C343.83 18.3725 342.678 19.0285 341.91 20.3405C341.142 21.6205 340.758 23.6205 340.758 26.3405C340.758 29.1245 341.126 31.1565 341.862 32.4365C342.63 33.7165 343.798 34.3565 345.366 34.3565C346.902 34.3565 348.054 33.7165 348.822 32.4365C349.59 31.1245 349.974 29.1085 349.974 26.3885C349.974 23.6045 349.59 21.5725 348.822 20.2925C348.086 19.0125 346.934 18.3725 345.366 18.3725Z" fill="#141414"/>
</svg>
